<svg width="32" height="32" viewBox="0 0 32 32" fill="none" xmlns="http://www.w3.org/2000/svg">
  <!-- Background circle -->
  <circle cx="16" cy="16" r="15" fill="#2563eb" stroke="#1e40af" stroke-width="2"/>
  
  <!-- Shopping cart -->
  <path d="M10 12 L10 10 C10 7.79 11.79 6 14 6 L18 6 C20.21 6 22 7.79 22 10 L22 12" 
        stroke="white" stroke-width="2" stroke-linecap="round" fill="none"/>
  <path d="M8 12 L24 12 L23 22 C23 23.1 22.1 24 21 24 L11 24 C9.9 24 9 23.1 9 22 L8 12 Z" 
        stroke="white" stroke-width="2" stroke-linecap="round" stroke-linejoin="round" fill="none"/>
  <circle cx="12" cy="26" r="1.5" fill="white"/>
  <circle cx="20" cy="26" r="1.5" fill="white"/>
  
  <!-- Price tag -->
  <path d="M20 8 L26 8 C26.55 8 27 8.45 27 9 L27 15 L20 8 Z" 
        fill="#fbbf24" stroke="white" stroke-width="1.5" stroke-linejoin="round"/>
  <path d="M20 8 L20 14 L26 14 L26 8 L20 8 Z" 
        fill="#f59e0b" stroke="white" stroke-width="1.5" stroke-linejoin="round"/>
  <text x="23" y="12" font-family="Arial, sans-serif" font-size="6" font-weight="bold" fill="white" text-anchor="middle">%</text>
</svg>

